<mxfile>
    <diagram id="Y9niGBV_lDlPCq2ffVMM" name="ページ1">
        <mxGraphModel dx="764" dy="562" grid="1" gridSize="10" guides="1" tooltips="1" connect="1" arrows="1" fold="1" page="1" pageScale="1" pageWidth="827" pageHeight="1169" math="0" shadow="0">
            <root>
                <mxCell id="0"/>
                <mxCell id="1" parent="0"/>
                <mxCell id="2" value="" style="rounded=0;whiteSpace=wrap;html=1;" parent="1" vertex="1">
                    <mxGeometry x="20" y="30" width="510" height="500" as="geometry"/>
                </mxCell>
                <mxCell id="7" value="" style="rounded=1;whiteSpace=wrap;html=1;labelBackgroundColor=none;fillColor=none;gradientColor=none;" parent="1" vertex="1">
                    <mxGeometry x="207.5" y="220" width="155" height="40" as="geometry"/>
                </mxCell>
                <mxCell id="8" value="" style="rounded=1;whiteSpace=wrap;html=1;labelBackgroundColor=none;fillColor=none;gradientColor=none;" parent="1" vertex="1">
                    <mxGeometry x="207.5" y="280" width="155" height="40" as="geometry"/>
                </mxCell>
                <mxCell id="9" value="ログイン" style="text;html=1;strokeColor=none;fillColor=none;align=center;verticalAlign=middle;whiteSpace=wrap;rounded=0;labelBackgroundColor=none;" parent="1" vertex="1">
                    <mxGeometry x="215" y="350" width="140" height="50" as="geometry"/>
                </mxCell>
                <mxCell id="10" value="新規作成" style="text;html=1;strokeColor=none;fillColor=none;align=center;verticalAlign=middle;whiteSpace=wrap;rounded=0;labelBackgroundColor=none;" parent="1" vertex="1">
                    <mxGeometry x="215" y="390" width="140" height="50" as="geometry"/>
                </mxCell>
                <mxCell id="11" value="アカウント名" style="text;html=1;strokeColor=none;fillColor=none;align=center;verticalAlign=middle;whiteSpace=wrap;rounded=0;labelBackgroundColor=none;" parent="1" vertex="1">
                    <mxGeometry x="190" y="210" width="140" height="60" as="geometry"/>
                </mxCell>
                <mxCell id="12" value="パスワード" style="text;html=1;strokeColor=none;fillColor=none;align=center;verticalAlign=middle;whiteSpace=wrap;rounded=0;labelBackgroundColor=none;" parent="1" vertex="1">
                    <mxGeometry x="190" y="270" width="140" height="60" as="geometry"/>
                </mxCell>
                <mxCell id="13" value="ロゴ" style="ellipse;whiteSpace=wrap;html=1;" vertex="1" parent="1">
                    <mxGeometry x="225" y="40" width="120" height="80" as="geometry"/>
                </mxCell>
            </root>
        </mxGraphModel>
    </diagram>
</mxfile>